<svg xmlns="http://www.w3.org/2000/svg" fill="none" viewBox="0 0 14 14"><path fill="currentColor" fill-rule="evenodd" d="M13.7111 0.354981C14.0673 0.747674 14.0377 1.35479 13.645 1.71102C11.7453 3.43437 10.4148 4.89573 9.30785 6.62343C8.19715 8.35706 7.2854 10.3997 6.27031 13.3156C6.1608 13.6302 5.89607 13.8655 5.57084 13.9374C5.24561 14.0092 4.90636 13.9074 4.67449 13.6683L0.310855 9.16828C-0.0582365 8.78766 -0.0488862 8.17989 0.33174 7.8108C0.712366 7.44171 1.32013 7.45106 1.68922 7.83168L4.98251 11.2279C5.83268 8.96151 6.6738 7.17565 7.69119 5.58766C8.92089 3.66829 10.3819 2.07887 12.355 0.288951C12.7477 -0.067275 13.3548 -0.0377125 13.7111 0.354981Z" clip-rule="evenodd"></path></svg>